<svg width="210" height="210" viewBox="0 0 210 210" fill="none" xmlns="http://www.w3.org/2000/svg">
<rect x="0.261719" y="0.579712" width="209.42" height="209.42" rx="34" fill="white"/>
<path d="M25.3994 155.579C25.3994 142.566 25.3994 129.553 25.3994 116.539C25.3994 111.196 27.123 109.386 32.3801 109.386C41.0844 109.386 49.7025 109.3 58.4068 109.386C70.0412 109.558 80.2105 113.867 88.8287 121.624C95.206 127.398 100.463 133.947 102.359 142.566C108.736 171.006 96.2402 196.429 64.1809 202.29C56.0799 203.754 47.8927 202.633 39.7055 202.978C37.4647 203.064 35.1379 203.064 32.8972 202.978C28.071 202.892 25.4856 200.307 25.3994 195.481C25.3994 182.122 25.3994 168.851 25.3994 155.579ZM47.2894 155.838C47.2894 162.473 47.2894 169.023 47.2894 175.659C47.2894 182.467 47.2894 182.381 54.0115 182.381C59.8718 182.381 65.5598 181.777 70.7306 178.761C80.2967 173.246 83.3992 162.56 82.4513 153.166C81.3309 141.79 73.9194 133.43 63.6639 130.759C59.01 129.553 54.2701 130.327 49.6163 129.898C47.5479 129.725 47.117 130.327 47.2032 132.224C47.3756 140.067 47.2894 147.995 47.2894 155.838Z" fill="#FAB31B"/>
<path d="M112.728 44.1524C112.728 35.6717 112.728 27.1912 112.728 18.7105C112.728 14.5937 115.116 12.1236 119.315 11.8766C121.044 11.7943 122.691 11.8766 124.42 11.8766C130.76 11.8766 133.23 14.3467 133.23 20.7689C133.23 36.4128 133.23 52.0567 133.23 67.6181C133.23 69.7589 133.642 71.735 134.464 73.6287C137.511 81.039 145.58 84.8264 154.554 83.015C161.8 81.5329 167.069 75.1108 167.069 67.4535C167.152 52.7976 167.152 38.0595 167.152 23.4036C167.152 21.5099 167.152 19.6986 167.563 17.8048C168.305 14.0997 170.527 12.0413 174.233 11.8766C176.621 11.7943 178.926 11.7943 181.314 11.8766C184.854 11.959 187.489 14.6761 187.489 18.2165C187.489 34.8484 187.983 51.5626 187.324 68.1945C186.666 85.9791 175.468 100.141 156.531 102.693C138.828 105.081 123.432 98.2472 115.939 82.1916C113.881 77.7455 112.728 73.0523 112.728 68.1122C112.728 60.2079 112.728 52.1389 112.728 44.1524Z" fill="#EE3B2A"/>
<path d="M150.372 109.561C160.714 109.561 171.055 109.561 181.397 109.561C185.62 109.561 187.516 111.371 187.602 115.594C187.688 118.352 187.688 121.109 187.602 123.867C187.429 127.831 185.362 129.728 181.397 129.728C175.365 129.728 169.417 129.814 163.385 129.728C161.489 129.728 160.886 130.245 160.972 132.14C161.058 141.965 161.058 155.141 161.058 164.965C161.058 171.085 156.749 175.393 150.544 175.566C144.167 175.738 139.513 171.516 139.427 165.31C139.34 155.831 139.427 143.172 139.427 133.692C139.427 129.728 139.427 129.728 135.548 129.728C130.033 129.728 124.517 129.728 119.002 129.728C115.555 129.728 113.659 128.09 113.486 124.556C113.314 121.282 113.314 118.093 113.486 114.818C113.659 111.199 115.555 109.561 119.174 109.475C129.516 109.561 139.944 109.561 150.372 109.561Z" fill="#24A96E"/>
<path d="M150.285 203.067C143.908 203.067 138.823 198.414 138.737 192.295C138.564 186.176 143.736 181.091 150.285 181.091C156.49 181.091 161.661 186.089 161.661 192.123C161.661 198.328 156.749 203.067 150.285 203.067Z" fill="#24A96E"/>
<path d="M23.5894 56.5113C23.5894 43.6704 23.5894 30.9156 23.5894 18.0746C23.5894 12.6452 25.0544 11.1801 30.3115 11.1801C41.4289 11.1801 52.6323 10.8354 63.7497 11.2663C76.5907 11.8696 87.4495 16.7819 93.9992 28.6749C104.341 47.5485 94.0854 69.8694 72.6263 75.7297C65.1286 77.7119 57.5447 76.8501 50.047 77.0225C45.5656 77.1086 45.5656 77.0225 45.5656 81.5039C45.5656 86.4161 45.5656 91.3285 45.5656 96.2408C45.5656 102.101 42.2044 105.29 36.3441 105.29C35.3962 105.29 34.362 105.29 33.414 105.29C27.0366 105.29 23.6755 102.015 23.6755 95.4652C23.5894 82.4519 23.5894 69.4386 23.5894 56.5113ZM45.4794 44.2736C45.4794 47.9795 45.4794 51.7714 45.4794 55.4772C45.4794 56.7699 45.7379 57.4593 47.2892 57.3731C52.5461 57.287 57.717 57.4593 62.9741 57.2008C70.2995 56.7699 75.6428 51.4267 76.1598 44.5322C76.5907 38.758 71.5922 32.8977 64.6116 31.6912C58.7512 30.657 52.8048 31.5188 46.9445 31.2603C45.3069 31.1741 45.6517 32.2945 45.6517 33.2424C45.4794 36.9483 45.4794 40.654 45.4794 44.2736Z" fill="#3E73B9"/>
</svg>
